<?xml version="1.0" encoding="UTF-8" standalone="no"?>
<svg width="48px" height="48px" viewBox="0 0 48 48" version="1.1" xmlns="http://www.w3.org/2000/svg" xmlns:xlink="http://www.w3.org/1999/xlink" xmlns:sketch="http://www.bohemiancoding.com/sketch/ns">
    <!-- Generator: Sketch 3.3.3 (12081) - http://www.bohemiancoding.com/sketch -->
    <title>bt-search</title>
    <desc>Created with Sketch.</desc>
    <defs></defs>
    <g id="playground" stroke="none" stroke-width="1" fill="none" fill-rule="evenodd" sketch:type="MSPage">
        <path d="M20.8789805,24.7661894 C20.3201181,23.8064764 20,22.690622 20,21.5 C20,17.9101491 22.9101491,15 26.5,15 C30.0898509,15 33,17.9101491 33,21.5 C33,25.0898509 30.0898509,28 26.5,28 C25.309378,28 24.1935236,27.6798819 23.2338106,27.1210195 L16.375,33 L15,31.625 L20.8789805,24.7661894 L20.8789805,24.7661894 Z M26.5,26 C28.9852814,26 31,23.9852814 31,21.5 C31,19.0147186 28.9852814,17 26.5,17 C24.0147186,17 22,19.0147186 22,21.5 C22,23.9852814 24.0147186,26 26.5,26 L26.5,26 Z" id="Oval-1-Copy-6" stroke="#2CD693" fill="#2CD693" sketch:type="MSShapeGroup"></path>
    </g>
</svg>